<svg xmlns="http://www.w3.org/2000/svg" viewBox="0 0 357.87 134.19">
  <defs>
    <style>.cls-1{fill:#004da4;}</style>
  </defs>
  <title>SR4</title>
  <g id="Layer_2" data-name="Layer 2">
    <g id="Layer_1-2" data-name="Layer 1">
      <path class="cls-1"
            d="M138.22,49.94l4.45-5.45a14.23,14.23,0,0,0,10.67,5.45c4.57,0,6.91-2,6.91-5,0-3.63-2.75-4.8-8-6.67-6.32-2.23-12.59-5-12.59-12.66,0-6.5,6-11.6,13.18-11.6a21.58,21.58,0,0,1,13.76,5.1l-4.21,5.57c-3.4-2.82-6.74-4.28-9.55-4.28-3.22,0-5.8,1.76-5.86,4.86s2.75,4.1,7.79,6C161.89,34.07,167.63,36,167.63,44c0,8.61-7.67,12.47-14.35,12.47A20.67,20.67,0,0,1,138.22,49.94Z" />
      <path class="cls-1" d="M175,47V33h-3.52V27.45H175V18l6.56-.7V27.45h8.38V33h-8.38V46.37c0,2.93.88,4,2.75,4a9.6,9.6,0,0,0,4.22-1.23l1.7,5.68a13.29,13.29,0,0,1-7.27,1.7C178,56.5,175,53.4,175,47Z" />
      <path class="cls-1" d="M212.14,27v7.32c-.76-.06-1.52-.12-2-.12-5,0-7.79,3.58-7.79,8.26V56H195.8V27.45h6.56v4.33h.06a11,11,0,0,1,8.9-4.74Z" />
      <path class="cls-1"
            d="M242.72,44H221.86a7.89,7.89,0,0,0,8.15,6.5,8.87,8.87,0,0,0,7.14-3.34l4.57,3.92c-2.4,3.11-6.44,5.39-12.07,5.39-8.31,0-14.58-5.85-14.58-14.76S221,27,229,27c8.44,0,13.88,6,13.88,14.35A24.49,24.49,0,0,1,242.72,44ZM222,38.75h14.29c-.82-3.45-3.16-5.8-6.91-5.8A7.23,7.23,0,0,0,222,38.75Z" />
      <path class="cls-1"
            d="M277.22,27.45V56H271v-3.8h-.12a10.81,10.81,0,0,1-9.08,4.27c-7.91,0-13.82-5.8-13.82-14.64,0-8.61,5.91-14.82,13.76-14.82a11.22,11.22,0,0,1,8.85,3.86h.12V27.45ZM271,41.92c0-5.1-3.46-9-8.14-9s-8.21,3.46-8.21,9c0,5,3.34,8.61,8.21,8.61C267.26,50.53,271,47.07,271,41.92Z" />
      <path class="cls-1"
            d="M329.93,39.52V56h-6.56V41.16c0-5.16-1.69-8.21-5.56-8.21-3.69,0-6.68,3.23-6.68,8.85V56h-6.56V41.16c0-5.16-1.82-8.21-5.68-8.21S292,36.18,292,41.8V56h-6.56V27.45H292v4h.06A11.53,11.53,0,0,1,301,27c3.86,0,6.85,1.52,8.55,4.74h.12A12.55,12.55,0,0,1,319.92,27C326.18,27,329.93,31,329.93,39.52Z" />
      <path class="cls-1" d="M163.47,111l-10-14.82h-5.57V111h-7.08V69.39H156.2c9.9,0,14.24,5.74,14.24,13.47,0,6.86-3.52,11-9.14,12.54v.17L172,111ZM147.94,89.77h6.74c5.68,0,8.44-2.92,8.44-7,0-4.4-2.87-7-8-7h-7.21Z" />
      <path class="cls-1"
            d="M204.06,99H183.21a7.88,7.88,0,0,0,8.14,6.5,8.93,8.93,0,0,0,7.15-3.33l4.56,3.92c-2.4,3.1-6.44,5.39-12.06,5.39-8.32,0-14.59-5.86-14.59-14.76S182.39,82,190.35,82c8.44,0,13.89,6,13.89,14.36A23.79,23.79,0,0,1,204.06,99ZM183.32,93.7h14.3c-.82-3.46-3.17-5.8-6.92-5.8A7.23,7.23,0,0,0,183.32,93.7Z" />
      <path class="cls-1"
            d="M238.38,82.39v25.66c0,8.67-4,14.94-14.58,14.94a22.92,22.92,0,0,1-11.66-3l1.58-5.74c3.11,1.64,5.62,2.81,9.73,2.81,5.62,0,8.49-3.22,8.49-7v-3h-.06a11.88,11.88,0,0,1-8.73,3.51c-8,0-13.94-5.62-13.94-14.12S214.89,82,222.8,82a12.94,12.94,0,0,1,8.91,3.46h.11v-3ZM232.12,96.1A7.83,7.83,0,0,0,224,88c-4.86,0-8.14,3.4-8.14,8.26,0,5.1,3.51,8.26,8.14,8.26S232.12,101,232.12,96.1Z" />
      <path class="cls-1" d="M245.88,73.78a4.37,4.37,0,0,1,4.39-4.33,4.37,4.37,0,1,1-4.39,4.33ZM247,82.39h6.56V111H247Z" />
      <path class="cls-1"
            d="M260.11,107.29l3.28-4.92a10.92,10.92,0,0,0,8.26,3.34c2.52,0,4-1.11,4-2.81,0-1.47-1.87-2.17-5.62-3.46-4.69-1.64-8.73-3.75-8.73-9.37,0-4.69,4.22-8.09,10.08-8.09a15.18,15.18,0,0,1,10.07,3.58l-3.28,5.15a10.48,10.48,0,0,0-7.15-3c-1.28,0-3.1.7-3.1,2.46,0,1.4,1.76,2.4,4.51,3.45,6.09,2.4,9.9,3.52,9.9,9.2,0,4.8-3.4,8.67-10.66,8.67A17,17,0,0,1,260.11,107.29Z" />
      <path class="cls-1" d="M289.34,102V88h-3.52V82.39h3.52V72.9l6.56-.7V82.39h8.37V88H295.9v13.36c0,2.92.88,4,2.75,4a9.63,9.63,0,0,0,4.22-1.23l1.7,5.68a13.29,13.29,0,0,1-7.27,1.7C292.38,111.45,289.34,108.34,289.34,102Z" />
      <path class="cls-1" d="M326.53,82v7.33c-.76-.06-1.52-.12-2-.12-5,0-7.79,3.57-7.79,8.26V111h-6.56V82.39h6.56v4.34h.06a11,11,0,0,1,8.9-4.75Z" />
      <path class="cls-1" d="M357.87,82.39l-15.7,40.19h-6.91l5.15-13.24-11.6-26.95h6.91l7.91,19.34L351,82.39Z" />
      <path class="cls-1"
            d="M42.31,47.78c-6.26,0-13.76-2.73-21.62-11.58-5.92-6.66-12.07-10-18.28-10H2.28a2.28,2.28,0,0,1,0-4.55h.15c7.57,0,14.86,3.89,21.68,11.56,10.14,11.42,19.22,11,25.05,8.69a31.57,31.57,0,0,0,11.51-8.69c6.82-7.67,14.12-11.56,21.69-11.56S97.2,25.5,104,33.17c5.92,6.66,12.07,10,18.28,10a2.28,2.28,0,0,1,0,4.56c-7.57,0-14.87-3.9-21.68-11.57-5.92-6.66-12.07-10-18.28-10S70,29.54,64.06,36.2a36,36,0,0,1-13.22,9.88A22.84,22.84,0,0,1,42.31,47.78Z" />
      <path class="cls-1"
            d="M41.54,134.19c-10.65,0-17.76-7.47-22.49-12.43-1.14-1.19-2.12-2.22-3-3a2.28,2.28,0,0,1,3-3.43c1,.87,2,2,3.25,3.23,4.49,4.71,10.64,11.16,19.54,11h.17c9,.14,15.08-6.3,19.57-11,1.21-1.27,2.26-2.37,3.26-3.24a2.28,2.28,0,1,1,3,3.43c-.85.73-1.83,1.76-3,3-4.79,5-12,12.6-22.91,12.42h-.47Z" />
      <path class="cls-1"
            d="M66.38,19.37a2.26,2.26,0,0,1-1.5-.56c-1-.87-2-2-3.25-3.24C57.14,10.86,51,4.41,42.09,4.56h-.17c-9-.15-15.08,6.3-19.57,11-1.21,1.27-2.26,2.37-3.26,3.24a2.28,2.28,0,0,1-3-3.43c.85-.74,1.83-1.76,3-3C23.84,7.41,31.05-.18,42,0h.09C52.92-.19,60.14,7.41,64.92,12.43c1.14,1.19,2.12,2.22,3,3a2.28,2.28,0,0,1-1.5,4Z" />
      <path class="cls-1"
            d="M82.48,69.43C71.84,69.43,64.72,62,60,57c-1.13-1.19-2.11-2.22-3-3a2.28,2.28,0,0,1,3-3.43c1,.87,2,2,3.26,3.24,4.49,4.71,10.64,11.15,19.54,11H83c8.94.16,15.08-6.3,19.57-11,1.21-1.27,2.26-2.37,3.26-3.24a2.28,2.28,0,0,1,3,3.43c-.84.74-1.82,1.76-3,3-4.78,5-12,12.61-22.9,12.43h-.48Z" />
      <path class="cls-1" d="M2.41,69.37H2.26a2.28,2.28,0,0,1,0-4.55h.13c6.21,0,12.36-3.38,18.28-10C27.39,47.23,34.57,43.34,42,43.21a2.28,2.28,0,0,1,.08,4.56c-6.12.1-12.17,3.48-18,10C17.27,65.48,10,69.37,2.41,69.37Z" />
      <path class="cls-1"
            d="M42.31,91c-6.26,0-13.76-2.73-21.62-11.58a43,43,0,0,0-4.21-4.14,2.28,2.28,0,0,1,2.95-3.48,47.77,47.77,0,0,1,4.66,4.59c10.14,11.42,19.22,11,25.05,8.68a31.42,31.42,0,0,0,11.51-8.68c6.82-7.67,14.12-11.56,21.69-11.56S97.2,68.71,104,76.38c5.92,6.66,12.07,10,18.28,10a2.28,2.28,0,0,1,0,4.56c-7.57,0-14.87-3.9-21.68-11.57-5.92-6.66-12.07-10-18.28-10S70,72.75,64.06,79.41a36,36,0,0,1-13.22,9.88A22.84,22.84,0,0,1,42.31,91Z" />
      <path class="cls-1"
            d="M82.34,112.58c-7.57,0-14.87-3.89-21.69-11.57a31.64,31.64,0,0,0-11.51-8.68C43.31,90,34.23,89.6,24.09,101c-6.86,7.73-14.22,11.62-21.83,11.57a2.28,2.28,0,0,1,0-4.55h.13c6.21,0,12.36-3.38,18.28-10,11.89-13.39,23-12.77,30.15-9.89A36.16,36.16,0,0,1,64.06,98c5.91,6.66,12.06,10,18.28,10s12.36-3.38,18.28-10a46.64,46.64,0,0,1,4.83-4.74,2.28,2.28,0,0,1,2.93,3.5A41.34,41.34,0,0,0,104,101C97.2,108.69,89.91,112.58,82.34,112.58Z" />
    </g>
  </g>
</svg>
